<svg height="120" viewBox="0 0 120 120" width="120" xmlns="http://www.w3.org/2000/svg"><g fill="none" fill-rule="evenodd"><path d="m0 0h120v120h-120z"/><path d="m113.377146 0h-106.75429198c-3.65808149 0-6.62285402 2.96432291-6.62285402 6.62285402v106.75429198c0 3.657632 2.96477253 6.622854 6.62285402 6.622854h57.47270448v-46.4701342h-15.6381185v-18.1105608h15.6381185v-13.3558641c0-15.4996365 9.4666797-23.9393917 23.2932925-23.9393917 6.622854 0 12.3154511.4932296 13.974087.7135418v16.1978913l-9.5894249.0044961c-7.5198394 0-8.9756982 3.5731039-8.9756982 8.8165339v11.5627927h17.9338611l-2.3353089 18.1105608h-15.5985522v46.4701342h30.5793311c3.657632 0 6.622854-2.965222 6.622854-6.622854v-106.75429198c0-3.65853111-2.965222-6.62285402-6.622854-6.62285402" fill="#fff"/></g></svg>