<svg height="120" viewBox="0 0 120 120" width="120" xmlns="http://www.w3.org/2000/svg"><g fill="none" fill-rule="evenodd"><path d="m0 60c0 11.0416667 2.6875 21.0625 8.0625 30.0625 5.375 9.2916667 12.6666667 16.604167 21.875 21.9375s19.2291667 8 30.0625 8c10.875 0 20.9375-2.666667 30.1875-8 9.25-5.375 16.53125-12.6770833 21.84375-21.90625s7.96875-19.2604167 7.96875-30.09375c0-11-2.666667-21.0625-8-30.1875-5.375-9.25-12.6770833-16.53125-21.90625-21.84375s-19.2604167-7.96875-30.09375-7.96875c-11.0416667 0-21.0625 2.6875-30.0625 8.0625-9.2916667 5.375-16.6041667 12.6666667-21.9375 21.875-5.33333333 9.2083333-8 19.2291667-8 30.0625zm10 0c0-6.6666667 1.3125-13.1041667 3.9375-19.3125s6.2083333-11.5625 10.75-16.0625c4.5416667-4.5416667 9.8958333-8.1145833 16.0625-10.71875s12.5833333-3.90625 19.25-3.90625 13.1041667 1.3020833 19.3125 3.90625 11.5833333 6.1770833 16.125 10.71875c4.5 4.5 8.052083 9.8541667 10.65625 16.0625s3.90625 12.6458333 3.90625 19.3125c0 7.1666667-1.46875 14-4.40625 20.5s-7.0625 12.1145833-12.375 16.84375c-5.3125 4.729167-11.3854167 8.15625-18.21875 10.28125v-17.625c0-4.375-1.7916667-7.7916667-5.375-10.25 8.7916667-.7916667 15.21875-3.0208333 19.28125-6.6875s6.09375-9.4791667 6.09375-17.4375c0-6.1666667-1.8958333-11.3541667-5.6875-15.5625.75-2.25 1.125-4.4166667 1.125-6.5 0-3.0833333-.7083333-5.9166667-2.125-8.5-2.7916667 0-5.2916667.4583333-7.5 1.375s-4.9166667 2.5-8.125 4.75c-3.875-.875-7.875-1.3125-12-1.3125-4.7083333 0-9.1041667.4791667-13.1875 1.4375-3.125-2.2916667-5.8229167-3.90625-8.09375-4.84375s-4.84375-1.40625-7.71875-1.40625c-1.375 2.625-2.0625 5.4583333-2.0625 8.5 0 2.1666667.3541667 4.3541667 1.0625 6.5625-3.7916667 4.0833333-5.6875 9.25-5.6875 15.5 0 7.9583333 2.0208333 13.75 6.0625 17.375s10.5208333 5.8541667 19.4375 6.6875c-2.375 1.5833333-4.0208333 3.8958333-4.9375 6.9375-2.0416667.7083333-4.1666667 1.0625-6.375 1.0625-1.6666667 0-3.1041667-.375-4.3125-1.125-.375-.2083333-.71875-.4270833-1.03125-.65625s-.6354167-.5104167-.96875-.84375-.6041667-.59375-.8125-.78125-.4791667-.5104167-.8125-.96875-.5520833-.75-.65625-.875-.3541667-.4583333-.75-1-.6145833-.8333333-.65625-.875c-1.9583333-2.5833333-4.2916667-3.875-7-3.875-1.4583333 0-2.1875.3125-2.1875.9375 0 .25.3541667.6666667 1.0625 1.25 1.3333333 1.1666667 2.0416667 1.7916667 2.125 1.875 1 .7916667 1.5625 1.2916667 1.6875 1.5 1.2083333 1.5 2.125 3.1458333 2.75 4.9375 2.3333333 5.2083333 6.3333333 7.8125 12 7.8125.9166667 0 2.7083333-.2083333 5.375-.625v13.25c-6.8333333-2.125-12.90625-5.552083-18.21875-10.28125-5.3125-4.7291667-9.4375-10.34375-12.375-16.84375s-4.40625-13.3333333-4.40625-20.5z" fill="#fff"/><path d="m0 0h120v120h-120z"/></g></svg>