<svg height="120" viewBox="0 0 118 120" width="118" xmlns="http://www.w3.org/2000/svg"><g fill="none" fill-rule="evenodd"><path d="m117.6 61.3636364c0-4.2545455-.381818-8.3454546-1.090909-12.2727273h-56.509091v23.2090909h32.2909091c-1.3909091 7.5-5.6181818 13.8545455-11.9727273 18.1090909v15.0545451h19.3909091c11.3454541-10.4454542 17.8909091-25.8272724 17.8909091-44.0999996z" fill="#4285f4"/><path d="m60 120c16.2 0 29.7818182-5.372727 39.7090909-14.536364l-19.3909091-15.0545451c-5.3727273 3.6-12.2454545 5.7272727-20.3181818 5.7272727-15.6272727 0-28.8545455-10.5545454-33.5727273-24.7363636h-20.04545452v15.5454545c9.87272732 19.6090905 30.16363632 33.0545455 53.61818182 33.0545455z" fill="#34a853"/><path d="m26.4272727 71.4c-1.2-3.6-1.8818182-7.4454545-1.8818182-11.4s.6818182-7.8 1.8818182-11.4v-15.5454545h-20.04545452c-4.06363636 8.1-6.38181818 17.2636363-6.38181818 26.9454545s2.31818182 18.8454545 6.38181818 26.9454545z" fill="#fbbc05"/><path d="m60 23.8636364c8.8090909 0 16.7181818 3.0272727 22.9363636 8.9727272l17.2090914-17.2090909c-10.3909095-9.68181815-23.9727277-15.6272727-40.145455-15.6272727-23.4545455 0-43.7454545 13.4454545-53.61818182 33.0545455l20.04545452 15.5454545c4.7181818-14.1818182 17.9454546-24.7363636 33.5727273-24.7363636z" fill="#ea4335"/><path d="m0 0h120v120h-120z"/></g></svg>