<svg height="24" viewBox="0 0 24 24" width="24" xmlns="http://www.w3.org/2000/svg"><g fill="none" fill-rule="evenodd"><path d="m10.8703019 2.23077312v18.10631318 2.2710453l3.6226415-1.7050075v-20.44212456z" fill="#f8941c"/><g fill="#bcbec0"><path d="m23.4162226 8.20810897.5000378 5.19215093-7.0056227-1.5242264"/><path d="m3.62501887 14.8525316c0-2.5668679 2.79701887-4.728566 6.60939623-5.38845282v-2.30094339c-5.83132076.70483018-10.23203774 3.87928301-10.23203774 7.68939621 0 3.947434 4.7235849 7.2123396 10.86792454 7.7556227v-2.2710566c-4.13388681-.5182642-7.24528303-2.7767548-7.24528303-5.4845661m11.50381133-7.68849055v2.30003773c1.5168679.2625283 2.8737736.76154722 3.9567283 1.43094342l2.5615358-1.58309436c-1.7456603-1.07898113-3.9987169-1.84335849-6.5182641-2.14788679"/></g></g></svg>