<svg height="98" viewBox="0 0 120 98" width="120" xmlns="http://www.w3.org/2000/svg"><g fill="none" fill-rule="evenodd" transform="translate(0 -13)"><path d="m0 0h120v120h-120z"/><path d="m120 24.8777205c-4.415231 1.9580818-9.160101 3.281466-14.140239 3.8766597 5.083287-3.0470756 8.986722-7.8718315 10.824975-13.6205421-4.756721 2.8210249-10.025678 4.869966-15.633491 5.9743224-4.491166-4.7848129-10.889498-7.7748272-17.9703715-7.7748272-13.5968397 0-24.6202129 11.0229343-24.6202129 24.6188961 0 1.9295512.2181499 3.8086251.6377702 5.6104466-20.461319-1.0266652-38.6019971-10.8280478-50.74465049-25.7228135-2.11917041 3.6361242-3.33326017 7.8652474-3.33326017 12.3770438 0 8.5412048 4.34675738 16.0768133 10.95270496 20.4916054-4.0359926-.1277297-7.83188855-1.2351586-11.15154179-3.0791178-.00175573.1027104-.00175573.2058598-.00175573.309448 0 11.9284539 8.48633822 21.8790739 19.74893012 24.1404587-2.0660595.5627126-4.2409745.863382-6.4865577.863382-1.5863053 0-3.1287172-.1540656-4.6316251-.441567 3.1326676 9.7811917 12.2247339 16.8989356 22.997915 17.0977724-8.4257654 6.602875-19.0413694 10.538791-30.57566112 10.538791-1.98705146 0-3.94688906-.116318-5.87292878-.3436851 10.8952047 6.9851861 23.8362778 11.0606821 37.739493 11.0606821 45.2838802 0 70.046746-37.5143197 70.046746-70.0476238 0-1.067486-.023702-2.1292659-.071107-3.1849007 4.809832-3.4710853 8.984089-7.8073082 12.284868-12.744431" fill="#fff"/></g></svg>