<?xml version="1.0" encoding="UTF-8"?>
<svg width="24px" height="24px" viewBox="0 0 24 24" version="1.1" xmlns="http://www.w3.org/2000/svg" xmlns:xlink="http://www.w3.org/1999/xlink">
    <!-- Generator: Sketch 52.4 (67378) - http://www.bohemiancoding.com/sketch -->
    <title>icon-oidc-24</title>
    <desc>Created with Sketch.</desc>
    <g id="icon-oidc-24" stroke="none" stroke-width="1" fill="none" fill-rule="evenodd">
        <polygon id="Fill-10" fill="#F8941C" points="10.8703019 2.23077312 10.8703019 20.3370863 10.8703019 22.6081316 14.4929434 20.9031241 14.4929434 0.460999537"></polygon>
        <polyline id="Fill-11" fill="#BCBEC0" points="23.4162226 8.20810897 23.9162604 13.4002599 16.9106377 11.8760335"></polyline>
        <path d="M3.62501887,14.8525316 C3.62501887,12.2856637 6.42203774,10.1239656 10.2344151,9.46407878 L10.2344151,7.16313539 C4.40309434,7.86796557 0.00237735849,11.0424184 0.00237735849,14.8525316 C0.00237735849,18.7999656 4.72596226,22.0648712 10.8703019,22.6081543 L10.8703019,20.3370977 C6.73641509,19.8188335 3.62501887,17.5603429 3.62501887,14.8525316 M15.1288302,7.16404105 L15.1288302,9.46407878 C16.6456981,9.72660708 18.0026038,10.225626 19.0855585,10.8950222 L21.6470943,9.31192784 C19.901434,8.23294671 17.6483774,7.46856935 15.1288302,7.16404105" id="Fill-12" fill="#BCBEC0"></path>
    </g>
</svg>
