<svg xmlns="http://www.w3.org/2000/svg" xmlns:xlink="http://www.w3.org/1999/xlink" width="24" height="24" version="1.1" viewBox="0 0 24 24"><title>icon-oidc-24</title><desc>Created with Sketch.</desc><g id="icon-oidc-24" fill="none" fill-rule="evenodd" stroke="none" stroke-width="1"><polygon id="Fill-10" fill="#F8941C" points="10.87 2.231 10.87 20.337 10.87 22.608 14.493 20.903 14.493 .461"/><polyline id="Fill-11" fill="#BCBEC0" points="23.416 8.208 23.916 13.4 16.911 11.876"/><path id="Fill-12" fill="#BCBEC0" d="M3.62501887,14.8525316 C3.62501887,12.2856637 6.42203774,10.1239656 10.2344151,9.46407878 L10.2344151,7.16313539 C4.40309434,7.86796557 0.00237735849,11.0424184 0.00237735849,14.8525316 C0.00237735849,18.7999656 4.72596226,22.0648712 10.8703019,22.6081543 L10.8703019,20.3370977 C6.73641509,19.8188335 3.62501887,17.5603429 3.62501887,14.8525316 M15.1288302,7.16404105 L15.1288302,9.46407878 C16.6456981,9.72660708 18.0026038,10.225626 19.0855585,10.8950222 L21.6470943,9.31192784 C19.901434,8.23294671 17.6483774,7.46856935 15.1288302,7.16404105"/></g></svg>