<svg height="24" viewBox="0 0 24 24" width="24" xmlns="http://www.w3.org/2000/svg"><g fill="none" fill-rule="evenodd"><path d="m19.820997 11.0608242c.0442433.3650072.0884866.7300144.0884866 1.1060825 0 2.3006514-.8848659 4.3911472-2.3227731 5.9617842-.2875814-.8959267-1.1060824-1.5374545-2.1015566-1.5374545h-1.1060824v-3.3182473c0-.6083453-.4977371-1.1060824-1.1060824-1.1060824h-6.63649455v-2.21216488h2.21216485c.60834533 0 1.10608242-.49773709 1.10608242-1.10608242v-2.21216485h2.21216488c1.2166906 0 2.2121648-.99547419 2.2121648-2.21216485v-2.80944936c-1.0507783-.33182473-2.1568607-.50879792-3.3182473-.50879792-6.10557494 0-11.0608242 4.95524927-11.0608242 11.06082428 0 6.105575 4.95524926 11.0608242 11.0608242 11.0608242 6.105575 0 11.0608243-4.9552492 11.0608243-11.0608242 0-.3760681-.0221217-.7410753-.0553041-1.1060825zm-9.86625518 9.8773161c-4.36902558-.5419804-7.74257697-4.2584173-7.74257697-8.7712336 0-.6857711.08848659-1.3383598.23227731-1.9798876l5.29813481 5.2981348v1.1060825c0 1.2166906.99547418 2.2121648 2.21216485 2.2121648zm11.33734488-17.06685181v-.7300144c0-1.24987314-1.1392649-2.31171227-2.4886855-2.31171227-1.3494205 0-2.4886854 1.06183913-2.4886854 2.31171227v.7300144h-.8295619v6.08345333h6.6364946v-6.08345333zm-1.6591237 0h-1.6591236v-.7300144c0-.32076391.4203113-.65258864.8295618-.65258864s.8295618.33182473.8295618.65258864z" fill="#000" fill-rule="nonzero" transform="translate(.895784 .145788)"/><path d="m0 0h24v24h-24z" fill="none"/></g></svg>
