<?xml version="1.0" ?><svg height="32" width="32" xmlns="http://www.w3.org/2000/svg"><path clip-rule="evenodd" d="M15.999.002c8.837 0 16 7.164 16 16 0 8.837-7.163 16-16 16s-16-7.163-16-16c0-8.836 7.163-16 16-16z" fill="#720E9E" fill-rule="evenodd"/><path d="M23.325 12.632l.017-.003.53-.59-.026-.002.056-.088h-7.425l.286 1.016h2.026l-3.41 3.155c-.696-1.015-2.327-3.348-3.465-5.098h2.115v-.72l.029-.207-.029-.004v-.084h-8.029v1.015h2.511c.975.805 5.202 5.937 5.356 6.427.062.459.15 3.168-.032 3.372-.219.315-2.506.145-2.909.175l-.015.995c.736.022 2.944-.001 3.689-.001 1.468 0 4.039-.038 4.401-.009l.045-.942-2.955-.044c-.062-.427-.13-3.122-.068-3.416.279-.853 4.813-4.383 5.279-4.516l.439-.099h1.37l.214-.332zm-1.108 7.041l1.284.098 1.497-5.49c-.25-.009-2.521-.212-2.816-.267l.035 5.659zm-.222.88l.007 1.341.65.054.702.049.206-1.312-.74-.034-.825-.098z" fill="#fff"/></svg>
